<?xml version="1.0" encoding="iso-8859-1"?>
<!-- Generator: Adobe Illustrator 18.1.1, SVG Export Plug-In . SVG Version: 6.00 Build 0)  -->
<svg xmlns="http://www.w3.org/2000/svg" xmlns:xlink="http://www.w3.org/1999/xlink" version="1.1" id="Capa_1" x="0px" y="0px" viewBox="0 0 16.165 16.165" style="enable-background:new 0 0 16.165 16.165;" xml:space="preserve" width="512px" height="512px">
<g>
	<path d="M16.143,0.025V0.023L16.142,0H9.851v1.467h3.811L10.92,4.209c-0.584-0.471-1.253-0.855-2.001-1.117   C5.407,1.871,1.581,3.721,0.371,7.227c-1.213,3.506,0.65,7.338,4.16,8.561c3.511,1.223,7.337-0.627,8.547-4.133   c0.781-2.264,0.276-4.662-1.121-6.408l2.741-2.74v3.809h1.466V0.025H16.143z M11.088,10.963c-0.832,2.406-3.461,3.678-5.871,2.838   S1.528,10.328,2.36,7.92c0.833-2.408,3.461-3.68,5.87-2.84C10.641,5.922,11.92,8.554,11.088,10.963z" fill="#FFFFFF"/>
</g>
<g>
</g>
<g>
</g>
<g>
</g>
<g>
</g>
<g>
</g>
<g>
</g>
<g>
</g>
<g>
</g>
<g>
</g>
<g>
</g>
<g>
</g>
<g>
</g>
<g>
</g>
<g>
</g>
<g>
</g>
</svg>
